<?xml version="1.0" encoding="utf-8" standalone="no"?>
<!DOCTYPE svg PUBLIC "-//W3C//DTD SVG 1.1//EN"
  "http://www.w3.org/Graphics/SVG/1.1/DTD/svg11.dtd">
<!-- Created with matplotlib (http://matplotlib.org/) -->
<svg height="345pt" version="1.1" viewBox="0 0 460 345" width="460pt" xmlns="http://www.w3.org/2000/svg" xmlns:xlink="http://www.w3.org/1999/xlink">
 <defs>
  <style type="text/css">
*{stroke-linecap:butt;stroke-linejoin:round;}
  </style>
 </defs>
 <g id="figure_1">
  <g id="patch_1">
   <path d="M 0 345.6 
L 460.8 345.6 
L 460.8 0 
L 0 0 
z
" style="fill:#ffffff;"/>
  </g>
  <g id="axes_1">
   <g id="patch_2">
    <path d="M 57.6 276.48 
L 414.72 276.48 
L 414.72 41.472 
L 57.6 41.472 
z
" style="fill:#ffffff;"/>
   </g>
   <g id="matplotlib.axis_1">
    <g id="xtick_1">
     <g id="line2d_1">
      <defs>
       <path d="M 0 0 
L 0 3.5 
" id="m2c89599637" style="stroke:#000000;stroke-width:0.8;"/>
      </defs>
      <g>
       <use style="stroke:#000000;stroke-width:0.8;" x="57.6" xlink:href="#m2c89599637" y="276.48"/>
      </g>
     </g>
     <g id="text_1">
      <!-- 2007-01 -->
      <defs>
       <path d="M 19.1875 8.296875 
L 53.609375 8.296875 
L 53.609375 0 
L 7.328125 0 
L 7.328125 8.296875 
Q 12.9375 14.109375 22.625 23.890625 
Q 32.328125 33.6875 34.8125 36.53125 
Q 39.546875 41.84375 41.421875 45.53125 
Q 43.3125 49.21875 43.3125 52.78125 
Q 43.3125 58.59375 39.234375 62.25 
Q 35.15625 65.921875 28.609375 65.921875 
Q 23.96875 65.921875 18.8125 64.3125 
Q 13.671875 62.703125 7.8125 59.421875 
L 7.8125 69.390625 
Q 13.765625 71.78125 18.9375 73 
Q 24.125 74.21875 28.421875 74.21875 
Q 39.75 74.21875 46.484375 68.546875 
Q 53.21875 62.890625 53.21875 53.421875 
Q 53.21875 48.921875 51.53125 44.890625 
Q 49.859375 40.875 45.40625 35.40625 
Q 44.1875 33.984375 37.640625 27.21875 
Q 31.109375 20.453125 19.1875 8.296875 
z
" id="DejaVuSans-32"/>
       <path d="M 31.78125 66.40625 
Q 24.171875 66.40625 20.328125 58.90625 
Q 16.5 51.421875 16.5 36.375 
Q 16.5 21.390625 20.328125 13.890625 
Q 24.171875 6.390625 31.78125 6.390625 
Q 39.453125 6.390625 43.28125 13.890625 
Q 47.125 21.390625 47.125 36.375 
Q 47.125 51.421875 43.28125 58.90625 
Q 39.453125 66.40625 31.78125 66.40625 
z
M 31.78125 74.21875 
Q 44.046875 74.21875 50.515625 64.515625 
Q 56.984375 54.828125 56.984375 36.375 
Q 56.984375 17.96875 50.515625 8.265625 
Q 44.046875 -1.421875 31.78125 -1.421875 
Q 19.53125 -1.421875 13.0625 8.265625 
Q 6.59375 17.96875 6.59375 36.375 
Q 6.59375 54.828125 13.0625 64.515625 
Q 19.53125 74.21875 31.78125 74.21875 
z
" id="DejaVuSans-30"/>
       <path d="M 8.203125 72.90625 
L 55.078125 72.90625 
L 55.078125 68.703125 
L 28.609375 0 
L 18.3125 0 
L 43.21875 64.59375 
L 8.203125 64.59375 
z
" id="DejaVuSans-37"/>
       <path d="M 4.890625 31.390625 
L 31.203125 31.390625 
L 31.203125 23.390625 
L 4.890625 23.390625 
z
" id="DejaVuSans-2d"/>
       <path d="M 12.40625 8.296875 
L 28.515625 8.296875 
L 28.515625 63.921875 
L 10.984375 60.40625 
L 10.984375 69.390625 
L 28.421875 72.90625 
L 38.28125 72.90625 
L 38.28125 8.296875 
L 54.390625 8.296875 
L 54.390625 0 
L 12.40625 0 
z
" id="DejaVuSans-31"/>
      </defs>
      <g transform="translate(20.375179 310.951846)rotate(-30)scale(0.1 -0.1)">
       <use xlink:href="#DejaVuSans-32"/>
       <use x="63.623047" xlink:href="#DejaVuSans-30"/>
       <use x="127.246094" xlink:href="#DejaVuSans-30"/>
       <use x="190.869141" xlink:href="#DejaVuSans-37"/>
       <use x="254.492188" xlink:href="#DejaVuSans-2d"/>
       <use x="290.576172" xlink:href="#DejaVuSans-30"/>
       <use x="354.199219" xlink:href="#DejaVuSans-31"/>
      </g>
     </g>
    </g>
    <g id="xtick_2">
     <g id="line2d_2">
      <g>
       <use style="stroke:#000000;stroke-width:0.8;" x="101.842793" xlink:href="#m2c89599637" y="276.48"/>
      </g>
     </g>
     <g id="text_2">
      <!-- 2007-07 -->
      <g transform="translate(64.617972 310.951846)rotate(-30)scale(0.1 -0.1)">
       <use xlink:href="#DejaVuSans-32"/>
       <use x="63.623047" xlink:href="#DejaVuSans-30"/>
       <use x="127.246094" xlink:href="#DejaVuSans-30"/>
       <use x="190.869141" xlink:href="#DejaVuSans-37"/>
       <use x="254.492188" xlink:href="#DejaVuSans-2d"/>
       <use x="290.576172" xlink:href="#DejaVuSans-30"/>
       <use x="354.199219" xlink:href="#DejaVuSans-37"/>
      </g>
     </g>
    </g>
    <g id="xtick_3">
     <g id="line2d_3">
      <g>
       <use style="stroke:#000000;stroke-width:0.8;" x="146.818891" xlink:href="#m2c89599637" y="276.48"/>
      </g>
     </g>
     <g id="text_3">
      <!-- 2008-01 -->
      <defs>
       <path d="M 31.78125 34.625 
Q 24.75 34.625 20.71875 30.859375 
Q 16.703125 27.09375 16.703125 20.515625 
Q 16.703125 13.921875 20.71875 10.15625 
Q 24.75 6.390625 31.78125 6.390625 
Q 38.8125 6.390625 42.859375 10.171875 
Q 46.921875 13.96875 46.921875 20.515625 
Q 46.921875 27.09375 42.890625 30.859375 
Q 38.875 34.625 31.78125 34.625 
z
M 21.921875 38.8125 
Q 15.578125 40.375 12.03125 44.71875 
Q 8.5 49.078125 8.5 55.328125 
Q 8.5 64.0625 14.71875 69.140625 
Q 20.953125 74.21875 31.78125 74.21875 
Q 42.671875 74.21875 48.875 69.140625 
Q 55.078125 64.0625 55.078125 55.328125 
Q 55.078125 49.078125 51.53125 44.71875 
Q 48 40.375 41.703125 38.8125 
Q 48.828125 37.15625 52.796875 32.3125 
Q 56.78125 27.484375 56.78125 20.515625 
Q 56.78125 9.90625 50.3125 4.234375 
Q 43.84375 -1.421875 31.78125 -1.421875 
Q 19.734375 -1.421875 13.25 4.234375 
Q 6.78125 9.90625 6.78125 20.515625 
Q 6.78125 27.484375 10.78125 32.3125 
Q 14.796875 37.15625 21.921875 38.8125 
z
M 18.3125 54.390625 
Q 18.3125 48.734375 21.84375 45.5625 
Q 25.390625 42.390625 31.78125 42.390625 
Q 38.140625 42.390625 41.71875 45.5625 
Q 45.3125 48.734375 45.3125 54.390625 
Q 45.3125 60.0625 41.71875 63.234375 
Q 38.140625 66.40625 31.78125 66.40625 
Q 25.390625 66.40625 21.84375 63.234375 
Q 18.3125 60.0625 18.3125 54.390625 
z
" id="DejaVuSans-38"/>
      </defs>
      <g transform="translate(109.59407 310.951846)rotate(-30)scale(0.1 -0.1)">
       <use xlink:href="#DejaVuSans-32"/>
       <use x="63.623047" xlink:href="#DejaVuSans-30"/>
       <use x="127.246094" xlink:href="#DejaVuSans-30"/>
       <use x="190.869141" xlink:href="#DejaVuSans-38"/>
       <use x="254.492188" xlink:href="#DejaVuSans-2d"/>
       <use x="290.576172" xlink:href="#DejaVuSans-30"/>
       <use x="354.199219" xlink:href="#DejaVuSans-31"/>
      </g>
     </g>
    </g>
    <g id="xtick_4">
     <g id="line2d_4">
      <g>
       <use style="stroke:#000000;stroke-width:0.8;" x="191.306119" xlink:href="#m2c89599637" y="276.48"/>
      </g>
     </g>
     <g id="text_4">
      <!-- 2008-07 -->
      <g transform="translate(154.081298 310.951846)rotate(-30)scale(0.1 -0.1)">
       <use xlink:href="#DejaVuSans-32"/>
       <use x="63.623047" xlink:href="#DejaVuSans-30"/>
       <use x="127.246094" xlink:href="#DejaVuSans-30"/>
       <use x="190.869141" xlink:href="#DejaVuSans-38"/>
       <use x="254.492188" xlink:href="#DejaVuSans-2d"/>
       <use x="290.576172" xlink:href="#DejaVuSans-30"/>
       <use x="354.199219" xlink:href="#DejaVuSans-37"/>
      </g>
     </g>
    </g>
    <g id="xtick_5">
     <g id="line2d_5">
      <g>
       <use style="stroke:#000000;stroke-width:0.8;" x="236.282218" xlink:href="#m2c89599637" y="276.48"/>
      </g>
     </g>
     <g id="text_5">
      <!-- 2009-01 -->
      <defs>
       <path d="M 10.984375 1.515625 
L 10.984375 10.5 
Q 14.703125 8.734375 18.5 7.8125 
Q 22.3125 6.890625 25.984375 6.890625 
Q 35.75 6.890625 40.890625 13.453125 
Q 46.046875 20.015625 46.78125 33.40625 
Q 43.953125 29.203125 39.59375 26.953125 
Q 35.25 24.703125 29.984375 24.703125 
Q 19.046875 24.703125 12.671875 31.3125 
Q 6.296875 37.9375 6.296875 49.421875 
Q 6.296875 60.640625 12.9375 67.421875 
Q 19.578125 74.21875 30.609375 74.21875 
Q 43.265625 74.21875 49.921875 64.515625 
Q 56.59375 54.828125 56.59375 36.375 
Q 56.59375 19.140625 48.40625 8.859375 
Q 40.234375 -1.421875 26.421875 -1.421875 
Q 22.703125 -1.421875 18.890625 -0.6875 
Q 15.09375 0.046875 10.984375 1.515625 
z
M 30.609375 32.421875 
Q 37.25 32.421875 41.125 36.953125 
Q 45.015625 41.5 45.015625 49.421875 
Q 45.015625 57.28125 41.125 61.84375 
Q 37.25 66.40625 30.609375 66.40625 
Q 23.96875 66.40625 20.09375 61.84375 
Q 16.21875 57.28125 16.21875 49.421875 
Q 16.21875 41.5 20.09375 36.953125 
Q 23.96875 32.421875 30.609375 32.421875 
z
" id="DejaVuSans-39"/>
      </defs>
      <g transform="translate(199.057397 310.951846)rotate(-30)scale(0.1 -0.1)">
       <use xlink:href="#DejaVuSans-32"/>
       <use x="63.623047" xlink:href="#DejaVuSans-30"/>
       <use x="127.246094" xlink:href="#DejaVuSans-30"/>
       <use x="190.869141" xlink:href="#DejaVuSans-39"/>
       <use x="254.492188" xlink:href="#DejaVuSans-2d"/>
       <use x="290.576172" xlink:href="#DejaVuSans-30"/>
       <use x="354.199219" xlink:href="#DejaVuSans-31"/>
      </g>
     </g>
    </g>
    <g id="xtick_6">
     <g id="line2d_6">
      <g>
       <use style="stroke:#000000;stroke-width:0.8;" x="280.52501" xlink:href="#m2c89599637" y="276.48"/>
      </g>
     </g>
     <g id="text_6">
      <!-- 2009-07 -->
      <g transform="translate(243.300189 310.951846)rotate(-30)scale(0.1 -0.1)">
       <use xlink:href="#DejaVuSans-32"/>
       <use x="63.623047" xlink:href="#DejaVuSans-30"/>
       <use x="127.246094" xlink:href="#DejaVuSans-30"/>
       <use x="190.869141" xlink:href="#DejaVuSans-39"/>
       <use x="254.492188" xlink:href="#DejaVuSans-2d"/>
       <use x="290.576172" xlink:href="#DejaVuSans-30"/>
       <use x="354.199219" xlink:href="#DejaVuSans-37"/>
      </g>
     </g>
    </g>
    <g id="xtick_7">
     <g id="line2d_7">
      <g>
       <use style="stroke:#000000;stroke-width:0.8;" x="325.501109" xlink:href="#m2c89599637" y="276.48"/>
      </g>
     </g>
     <g id="text_7">
      <!-- 2010-01 -->
      <g transform="translate(288.276288 310.951846)rotate(-30)scale(0.1 -0.1)">
       <use xlink:href="#DejaVuSans-32"/>
       <use x="63.623047" xlink:href="#DejaVuSans-30"/>
       <use x="127.246094" xlink:href="#DejaVuSans-31"/>
       <use x="190.869141" xlink:href="#DejaVuSans-30"/>
       <use x="254.492188" xlink:href="#DejaVuSans-2d"/>
       <use x="290.576172" xlink:href="#DejaVuSans-30"/>
       <use x="354.199219" xlink:href="#DejaVuSans-31"/>
      </g>
     </g>
    </g>
    <g id="xtick_8">
     <g id="line2d_8">
      <g>
       <use style="stroke:#000000;stroke-width:0.8;" x="369.743901" xlink:href="#m2c89599637" y="276.48"/>
      </g>
     </g>
     <g id="text_8">
      <!-- 2010-07 -->
      <g transform="translate(332.519081 310.951846)rotate(-30)scale(0.1 -0.1)">
       <use xlink:href="#DejaVuSans-32"/>
       <use x="63.623047" xlink:href="#DejaVuSans-30"/>
       <use x="127.246094" xlink:href="#DejaVuSans-31"/>
       <use x="190.869141" xlink:href="#DejaVuSans-30"/>
       <use x="254.492188" xlink:href="#DejaVuSans-2d"/>
       <use x="290.576172" xlink:href="#DejaVuSans-30"/>
       <use x="354.199219" xlink:href="#DejaVuSans-37"/>
      </g>
     </g>
    </g>
    <g id="xtick_9">
     <g id="line2d_9">
      <g>
       <use style="stroke:#000000;stroke-width:0.8;" x="414.72" xlink:href="#m2c89599637" y="276.48"/>
      </g>
     </g>
     <g id="text_9">
      <!-- 2011-01 -->
      <g transform="translate(377.495179 310.951846)rotate(-30)scale(0.1 -0.1)">
       <use xlink:href="#DejaVuSans-32"/>
       <use x="63.623047" xlink:href="#DejaVuSans-30"/>
       <use x="127.246094" xlink:href="#DejaVuSans-31"/>
       <use x="190.869141" xlink:href="#DejaVuSans-31"/>
       <use x="254.492188" xlink:href="#DejaVuSans-2d"/>
       <use x="290.576172" xlink:href="#DejaVuSans-30"/>
       <use x="354.199219" xlink:href="#DejaVuSans-31"/>
      </g>
     </g>
    </g>
   </g>
   <g id="matplotlib.axis_2">
    <g id="ytick_1">
     <g id="line2d_10">
      <defs>
       <path d="M 0 0 
L -3.5 0 
" id="m99e61b78c7" style="stroke:#000000;stroke-width:0.8;"/>
      </defs>
      <g>
       <use style="stroke:#000000;stroke-width:0.8;" x="57.6" xlink:href="#m99e61b78c7" y="276.48"/>
      </g>
     </g>
     <g id="text_10">
      <!-- 600 -->
      <defs>
       <path d="M 33.015625 40.375 
Q 26.375 40.375 22.484375 35.828125 
Q 18.609375 31.296875 18.609375 23.390625 
Q 18.609375 15.53125 22.484375 10.953125 
Q 26.375 6.390625 33.015625 6.390625 
Q 39.65625 6.390625 43.53125 10.953125 
Q 47.40625 15.53125 47.40625 23.390625 
Q 47.40625 31.296875 43.53125 35.828125 
Q 39.65625 40.375 33.015625 40.375 
z
M 52.59375 71.296875 
L 52.59375 62.3125 
Q 48.875 64.0625 45.09375 64.984375 
Q 41.3125 65.921875 37.59375 65.921875 
Q 27.828125 65.921875 22.671875 59.328125 
Q 17.53125 52.734375 16.796875 39.40625 
Q 19.671875 43.65625 24.015625 45.921875 
Q 28.375 48.1875 33.59375 48.1875 
Q 44.578125 48.1875 50.953125 41.515625 
Q 57.328125 34.859375 57.328125 23.390625 
Q 57.328125 12.15625 50.6875 5.359375 
Q 44.046875 -1.421875 33.015625 -1.421875 
Q 20.359375 -1.421875 13.671875 8.265625 
Q 6.984375 17.96875 6.984375 36.375 
Q 6.984375 53.65625 15.1875 63.9375 
Q 23.390625 74.21875 37.203125 74.21875 
Q 40.921875 74.21875 44.703125 73.484375 
Q 48.484375 72.75 52.59375 71.296875 
z
" id="DejaVuSans-36"/>
      </defs>
      <g transform="translate(31.5125 280.279219)scale(0.1 -0.1)">
       <use xlink:href="#DejaVuSans-36"/>
       <use x="63.623047" xlink:href="#DejaVuSans-30"/>
       <use x="127.246094" xlink:href="#DejaVuSans-30"/>
      </g>
     </g>
    </g>
    <g id="ytick_2">
     <g id="line2d_11">
      <g>
       <use style="stroke:#000000;stroke-width:0.8;" x="57.6" xlink:href="#m99e61b78c7" y="237.312"/>
      </g>
     </g>
     <g id="text_11">
      <!-- 800 -->
      <g transform="translate(31.5125 241.111219)scale(0.1 -0.1)">
       <use xlink:href="#DejaVuSans-38"/>
       <use x="63.623047" xlink:href="#DejaVuSans-30"/>
       <use x="127.246094" xlink:href="#DejaVuSans-30"/>
      </g>
     </g>
    </g>
    <g id="ytick_3">
     <g id="line2d_12">
      <g>
       <use style="stroke:#000000;stroke-width:0.8;" x="57.6" xlink:href="#m99e61b78c7" y="198.144"/>
      </g>
     </g>
     <g id="text_12">
      <!-- 1000 -->
      <g transform="translate(25.15 201.943219)scale(0.1 -0.1)">
       <use xlink:href="#DejaVuSans-31"/>
       <use x="63.623047" xlink:href="#DejaVuSans-30"/>
       <use x="127.246094" xlink:href="#DejaVuSans-30"/>
       <use x="190.869141" xlink:href="#DejaVuSans-30"/>
      </g>
     </g>
    </g>
    <g id="ytick_4">
     <g id="line2d_13">
      <g>
       <use style="stroke:#000000;stroke-width:0.8;" x="57.6" xlink:href="#m99e61b78c7" y="158.976"/>
      </g>
     </g>
     <g id="text_13">
      <!-- 1200 -->
      <g transform="translate(25.15 162.775219)scale(0.1 -0.1)">
       <use xlink:href="#DejaVuSans-31"/>
       <use x="63.623047" xlink:href="#DejaVuSans-32"/>
       <use x="127.246094" xlink:href="#DejaVuSans-30"/>
       <use x="190.869141" xlink:href="#DejaVuSans-30"/>
      </g>
     </g>
    </g>
    <g id="ytick_5">
     <g id="line2d_14">
      <g>
       <use style="stroke:#000000;stroke-width:0.8;" x="57.6" xlink:href="#m99e61b78c7" y="119.808"/>
      </g>
     </g>
     <g id="text_14">
      <!-- 1400 -->
      <defs>
       <path d="M 37.796875 64.3125 
L 12.890625 25.390625 
L 37.796875 25.390625 
z
M 35.203125 72.90625 
L 47.609375 72.90625 
L 47.609375 25.390625 
L 58.015625 25.390625 
L 58.015625 17.1875 
L 47.609375 17.1875 
L 47.609375 0 
L 37.796875 0 
L 37.796875 17.1875 
L 4.890625 17.1875 
L 4.890625 26.703125 
z
" id="DejaVuSans-34"/>
      </defs>
      <g transform="translate(25.15 123.607219)scale(0.1 -0.1)">
       <use xlink:href="#DejaVuSans-31"/>
       <use x="63.623047" xlink:href="#DejaVuSans-34"/>
       <use x="127.246094" xlink:href="#DejaVuSans-30"/>
       <use x="190.869141" xlink:href="#DejaVuSans-30"/>
      </g>
     </g>
    </g>
    <g id="ytick_6">
     <g id="line2d_15">
      <g>
       <use style="stroke:#000000;stroke-width:0.8;" x="57.6" xlink:href="#m99e61b78c7" y="80.64"/>
      </g>
     </g>
     <g id="text_15">
      <!-- 1600 -->
      <g transform="translate(25.15 84.439219)scale(0.1 -0.1)">
       <use xlink:href="#DejaVuSans-31"/>
       <use x="63.623047" xlink:href="#DejaVuSans-36"/>
       <use x="127.246094" xlink:href="#DejaVuSans-30"/>
       <use x="190.869141" xlink:href="#DejaVuSans-30"/>
      </g>
     </g>
    </g>
    <g id="ytick_7">
     <g id="line2d_16">
      <g>
       <use style="stroke:#000000;stroke-width:0.8;" x="57.6" xlink:href="#m99e61b78c7" y="41.472"/>
      </g>
     </g>
     <g id="text_16">
      <!-- 1800 -->
      <g transform="translate(25.15 45.271219)scale(0.1 -0.1)">
       <use xlink:href="#DejaVuSans-31"/>
       <use x="63.623047" xlink:href="#DejaVuSans-38"/>
       <use x="127.246094" xlink:href="#DejaVuSans-30"/>
       <use x="190.869141" xlink:href="#DejaVuSans-30"/>
      </g>
     </g>
    </g>
   </g>
   <g id="line2d_17">
    <path clip-path="url(#p76d81e4dd7)" d="M 56.866694 116.224128 
L 58.088871 116.557056 
L 58.333306 116.216294 
L 58.577741 117.906394 
L 59.311047 117.293414 
L 59.555483 117.436378 
L 59.799918 116.899776 
L 60.288789 113.789837 
L 61.26653 113.560704 
L 61.510965 113.811379 
L 61.7554 114.643699 
L 61.999836 113.83488 
L 62.733142 115.313472 
L 62.977577 114.326438 
L 63.222012 111.948941 
L 63.466448 115.127424 
L 63.710883 115.464269 
L 64.444189 115.769779 
L 65.177495 110.81111 
L 65.42193 110.331302 
L 66.155236 110.605478 
L 66.399671 110.40768 
L 66.644107 110.012083 
L 66.888542 110.34697 
L 67.132977 112.35433 
L 67.866283 113.272819 
L 68.355154 108.978048 
L 68.599589 108.68233 
L 68.844025 108.931046 
L 69.821766 108.120269 
L 70.310637 108.766541 
L 70.555072 109.78295 
L 71.288378 110.139379 
L 71.532813 119.996006 
L 71.777248 118.472371 
L 72.021684 119.187187 
L 72.266119 122.320627 
L 72.999425 124.876339 
L 73.24386 120.706906 
L 73.488296 121.380595 
L 73.732731 119.437862 
L 73.977166 119.251814 
L 74.710472 118.515456 
L 74.954908 124.126272 
L 75.443778 121.319885 
L 75.688214 122.363712 
L 76.42152 119.40457 
L 76.665955 117.66551 
L 76.91039 112.945766 
L 77.154825 113.043686 
L 77.399261 112.736218 
L 78.132567 112.464 
L 78.621437 116.433677 
L 78.865873 115.395725 
L 79.110308 115.722778 
L 79.843614 115.000128 
L 80.088049 112.411123 
L 80.332485 112.097779 
L 80.57692 111.238042 
L 81.554661 111.071578 
L 81.799097 110.331302 
L 82.043532 112.195699 
L 82.532402 109.457856 
L 83.510144 105.809357 
L 83.754579 105.6096 
L 83.999014 105.956237 
L 84.24345 103.288896 
L 85.221191 104.060506 
L 85.465626 101.120947 
L 85.710062 101.35008 
L 85.954497 101.385331 
L 86.687803 103.676659 
L 86.932238 102.907008 
L 87.421109 99.755942 
L 87.665544 99.123379 
L 88.39885 98.367437 
L 88.643285 98.712115 
L 88.887721 97.760333 
L 89.132156 101.894515 
L 89.376591 99.078336 
L 90.109897 99.607104 
L 90.354333 99.99095 
L 90.598768 97.454822 
L 90.843203 97.72704 
L 91.087639 95.76864 
L 91.820945 95.308416 
L 92.06538 95.500339 
L 92.309815 95.860685 
L 92.554251 98.753242 
L 92.798686 97.143437 
L 93.776427 96.677338 
L 94.020862 94.303757 
L 94.265298 94.227379 
L 94.509733 93.107174 
L 95.243039 92.550989 
L 95.487474 94.162752 
L 95.73191 96.820301 
L 95.976345 102.041395 
L 96.22078 98.721907 
L 96.954086 98.437939 
L 97.198522 101.59488 
L 97.442957 97.155187 
L 97.931828 93.778906 
L 98.665133 94.143168 
L 98.909569 93.624192 
L 99.154004 97.709414 
L 99.398439 95.87831 
L 99.642875 99.72265 
L 100.376181 100.666598 
L 100.620616 101.616422 
L 100.865051 98.982374 
L 101.109487 99.105754 
L 101.353922 99.567936 
L 102.331663 95.353459 
L 102.820534 95.249664 
L 103.064969 94.26263 
L 103.798275 93.986496 
L 104.04271 98.242099 
L 104.287146 96.550042 
L 104.531581 90.882432 
L 104.776016 89.9424 
L 105.509322 90.526003 
L 105.753758 90.555379 
L 105.998193 91.182067 
L 106.242628 89.828813 
L 106.487064 93.545856 
L 107.22037 92.082931 
L 107.464805 98.061926 
L 107.70924 96.681254 
L 108.198111 108.263232 
L 108.931417 105.333466 
L 109.175852 108.983923 
L 109.664723 105.668352 
L 109.909158 113.33353 
L 110.886899 104.785114 
L 111.131335 100.715558 
L 111.37577 109.410854 
L 111.620205 109.303142 
L 112.353511 109.444147 
L 112.842382 118.495872 
L 113.086817 117.600883 
L 113.331253 110.81111 
L 114.064559 110.887488 
L 114.308994 110.580019 
L 114.553429 107.260531 
L 114.797864 107.568 
L 115.0423 104.264179 
L 115.775606 106.727846 
L 116.020041 113.470618 
L 116.264476 107.321242 
L 116.508912 108.519782 
L 116.753347 105.317798 
L 117.731088 102.295987 
L 117.975524 105.650726 
L 118.219959 104.424768 
L 118.464394 109.320768 
L 119.1977 109.683072 
L 119.442136 105.807398 
L 119.686571 105.79369 
L 119.931006 103.367232 
L 120.175441 103.30848 
L 120.908747 104.796864 
L 121.153183 96.350285 
L 121.397618 94.538765 
L 121.642053 96.552 
L 121.886489 95.18112 
L 122.619795 96.751757 
L 122.86423 96.853594 
L 123.353101 94.078541 
L 123.597536 94.98528 
L 124.330842 91.011686 
L 124.575277 91.091981 
L 124.819713 92.470694 
L 125.064148 91.834214 
L 125.308583 88.945574 
L 126.041889 89.926733 
L 126.286324 87.465024 
L 126.53076 87.989875 
L 126.775195 89.568346 
L 127.01963 88.121088 
L 127.752936 90.684634 
L 127.997372 92.678285 
L 128.241807 92.147558 
L 128.486242 92.374733 
L 128.730678 100.100621 
L 129.463984 98.984333 
L 129.708419 96.387494 
L 129.952854 97.114061 
L 130.19729 97.403904 
L 130.441725 93.314765 
L 131.175031 92.198477 
L 131.419466 94.149043 
L 131.663901 90.553421 
L 131.908337 98.57111 
L 132.152772 98.334144 
L 132.886078 99.799027 
L 133.130513 96.254323 
L 133.374949 104.998579 
L 133.619384 105.165043 
L 133.863819 109.291392 
L 134.597125 112.134989 
L 134.841561 103.935168 
L 135.085996 105.985613 
L 135.330431 109.790784 
L 135.574867 108.304358 
L 136.308172 113.292403 
L 136.552608 112.033152 
L 136.797043 116.523763 
L 137.285914 111.837312 
L 138.01922 118.394035 
L 138.263655 114.279437 
L 138.50809 106.291123 
L 138.752526 106.154035 
L 138.996961 103.917542 
L 139.730267 105.625267 
L 139.974702 107.511206 
L 140.463573 98.786534 
L 140.708008 99.311386 
L 141.441314 97.098394 
L 141.685749 104.601024 
L 141.930185 102.850214 
L 142.17462 102.493786 
L 142.419055 106.500672 
L 143.152361 110.818944 
L 143.396797 109.040717 
L 143.641232 109.42848 
L 143.885667 108.034099 
L 144.130103 103.267354 
L 144.863409 100.919232 
L 145.352279 100.682266 
L 145.596715 104.871283 
L 145.84115 104.436518 
L 146.574456 106.420378 
L 147.063326 110.572186 
L 147.307762 110.572186 
L 147.552197 117.530381 
L 148.285503 116.639309 
L 148.529938 121.72919 
L 149.018809 115.826573 
L 149.263244 119.608243 
L 149.99655 116.6256 
L 150.240986 123.538752 
L 150.485421 125.056512 
L 150.729856 132.88032 
L 150.974292 134.45879 
L 151.952033 137.33568 
L 152.196468 131.832576 
L 152.440903 129.194611 
L 152.685339 133.397338 
L 153.66308 127.191168 
L 153.907515 128.46217 
L 154.396386 120.704947 
L 155.129692 123.564211 
L 155.374127 132.216422 
L 155.618563 134.212032 
L 155.862998 132.163546 
L 156.107433 133.264166 
L 156.840739 131.728781 
L 157.085175 129.823258 
L 157.32961 126.229594 
L 157.574045 129.823258 
L 157.81848 129.601958 
L 158.796222 129.838925 
L 159.040657 127.635725 
L 159.285092 131.062925 
L 159.529528 128.990938 
L 160.262834 125.330688 
L 160.507269 123.472166 
L 160.751704 123.720883 
L 160.99614 126.137549 
L 161.240575 133.393421 
L 161.973881 133.254374 
L 162.218316 134.15328 
L 162.462752 132.792192 
L 162.707187 138.542054 
L 162.951622 140.690419 
L 163.684928 144.607219 
L 163.929363 135.347904 
L 164.173799 137.674483 
L 164.418234 136.360397 
L 164.662669 141.714662 
L 165.395975 143.974656 
L 165.640411 133.371878 
L 165.884846 139.701427 
L 166.129281 133.612762 
L 167.351458 129.014438 
L 168.084764 136.411315 
L 168.81807 134.946432 
L 169.062505 125.647949 
L 169.30694 126.166925 
L 169.795811 125.604864 
L 170.529117 125.185766 
L 170.773552 126.556646 
L 171.017988 128.720678 
L 171.262423 127.533888 
L 171.506858 132.962573 
L 172.240164 133.845811 
L 172.4846 132.649229 
L 172.729035 126.719194 
L 172.97347 126.55273 
L 173.217906 121.701773 
L 173.951211 122.124787 
L 174.195647 124.51991 
L 174.440082 123.738509 
L 174.928953 120.231014 
L 175.662259 120.518899 
L 176.151129 122.630054 
L 176.395565 117.978854 
L 176.64 117.085824 
L 177.373306 118.341158 
L 177.617741 116.231962 
L 177.862177 121.263091 
L 178.106612 120.262349 
L 178.351047 122.103245 
L 179.084353 119.106893 
L 179.328789 119.212646 
L 179.573224 118.112026 
L 179.817659 115.192051 
L 180.062094 114.843456 
L 180.7954 114.592781 
L 181.039836 117.183744 
L 181.284271 121.627354 
L 181.528706 120.914496 
L 181.773142 124.521869 
L 182.750883 122.677056 
L 183.484189 119.733581 
L 184.217495 122.614387 
L 184.46193 124.185024 
L 184.706366 124.273152 
L 184.950801 119.014848 
L 185.195236 127.508429 
L 185.928542 127.296922 
L 186.172977 127.94711 
L 186.417413 132.441638 
L 186.661848 131.583859 
L 186.906283 127.635725 
L 187.639589 127.614182 
L 188.12846 131.98729 
L 188.372895 131.004173 
L 188.617331 135.880589 
L 189.350637 135.86688 
L 189.595072 136.593446 
L 189.839507 135.089395 
L 190.083943 142.691904 
L 190.328378 143.626061 
L 191.061684 143.3088 
L 191.306119 142.347226 
L 191.550554 146.927923 
L 191.79499 146.657664 
L 192.772731 148.73161 
L 193.017166 144.542592 
L 193.261602 150.22391 
L 193.506037 148.520102 
L 193.750472 151.242278 
L 194.483778 153.433728 
L 194.728214 156.056026 
L 194.972649 150.092698 
L 195.217084 147.162931 
L 195.46152 147.092429 
L 196.194825 147.2256 
L 196.439261 143.89632 
L 196.683696 142.87991 
L 196.928131 148.686566 
L 197.172567 147.664282 
L 197.905873 152.244979 
L 198.394743 142.474522 
L 198.639179 145.780301 
L 198.883614 147.16489 
L 199.61692 149.377882 
L 199.861355 142.353101 
L 200.105791 141.50903 
L 200.350226 146.036851 
L 200.594661 140.112691 
L 201.327967 138.350131 
L 201.572402 141.430694 
L 201.816838 142.167053 
L 202.305708 139.744512 
L 203.039014 143.582976 
L 203.28345 145.91543 
L 203.527885 144.378086 
L 203.77232 143.755315 
L 204.016756 140.919552 
L 204.750062 145.886054 
L 204.994497 144.971482 
L 205.238932 142.983706 
L 205.483368 139.258829 
L 205.727803 142.754573 
L 206.705544 143.782733 
L 206.949979 144.291917 
L 207.194415 151.763213 
L 207.43885 150.69001 
L 208.172156 145.700006 
L 208.416591 154.175962 
L 208.661027 152.701286 
L 208.905462 149.370048 
L 209.149897 148.851072 
L 209.883203 160.405632 
L 210.127639 156.312576 
L 210.372074 167.516582 
L 210.860945 148.189133 
L 211.838686 161.282995 
L 212.083121 161.743219 
L 212.327556 157.178189 
L 212.571992 156.377203 
L 213.305298 177.302707 
L 213.549733 165.564058 
L 213.794168 166.60201 
L 214.038604 175.763405 
L 215.016345 187.002662 
L 215.26078 198.882317 
L 215.505216 201.09335 
L 215.749651 215.785267 
L 215.994086 217.880755 
L 216.727392 197.487936 
L 216.971828 198.533722 
L 217.216263 216.192614 
L 217.460698 208.635149 
L 217.705133 209.786688 
L 218.438439 201.003264 
L 218.682875 206.947008 
L 218.92731 218.358605 
L 219.171745 216.139738 
L 219.416181 222.277363 
L 220.149487 227.731507 
L 220.393922 209.794522 
L 220.638357 211.835174 
L 221.127228 204.264 
L 221.860534 204.743808 
L 222.104969 197.01792 
L 222.59384 216.772301 
L 222.838275 211.658918 
L 223.571581 213.965914 
L 223.816016 217.933632 
L 224.060452 227.069568 
L 224.304887 215.516966 
L 224.549322 222.958886 
L 225.282628 227.37312 
L 225.527064 225.733939 
L 226.015934 246.62615 
L 226.26037 237.306125 
L 226.993676 227.16553 
L 227.238111 226.072742 
L 227.482546 220.140749 
L 227.971417 218.464358 
L 228.704723 234.137434 
L 229.193593 223.458278 
L 229.438029 228.456115 
L 229.682464 222.414451 
L 230.41577 215.828352 
L 230.660205 219.946867 
L 230.904641 217.876838 
L 231.149076 222.900134 
L 231.393511 221.697677 
L 232.126817 223.883251 
L 232.371253 215.146829 
L 232.615688 216.862387 
L 232.860123 220.610765 
L 233.104559 220.101581 
L 233.837864 223.283981 
L 234.0823 224.942746 
L 234.326735 223.965504 
L 234.815606 223.054848 
L 235.548912 223.716787 
L 236.037782 217.09152 
L 236.526653 211.500288 
L 237.259959 212.352192 
L 237.504394 210.932352 
L 237.74883 216.425664 
L 237.993265 215.822477 
L 238.2377 219.617856 
L 238.971006 223.552282 
L 239.215441 223.252646 
L 239.459877 228.965299 
L 239.704312 228.745958 
L 239.948747 227.496499 
L 240.926489 236.289715 
L 241.170924 229.431398 
L 241.415359 231.9264 
L 241.659795 231.054912 
L 242.393101 230.150131 
L 242.637536 228.360154 
L 242.881971 222.802214 
L 243.370842 232.243661 
L 244.104148 232.32983 
L 244.348583 229.770202 
L 244.593018 231.000077 
L 244.837454 228.332736 
L 245.081889 223.877376 
L 245.815195 223.624742 
L 246.05963 231.992986 
L 246.304066 230.704358 
L 246.548501 230.42039 
L 246.792936 232.055654 
L 247.770678 239.432947 
L 248.015113 239.579827 
L 249.23729 248.410253 
L 249.481725 242.572262 
L 249.72616 244.185984 
L 249.970595 246.549773 
L 250.215031 250.023974 
L 250.948337 256.735411 
L 251.192772 257.614733 
L 251.437207 254.375539 
L 251.681643 260.313408 
L 251.926078 260.150861 
L 252.659384 261.492365 
L 252.903819 253.057536 
L 253.148255 252.712858 
L 253.39269 246.959078 
L 253.637125 245.821248 
L 254.370431 246.342182 
L 254.859302 238.418496 
L 255.103737 240.437606 
L 255.348172 243.473126 
L 256.081478 232.823347 
L 256.325914 236.113459 
L 256.570349 234.593741 
L 256.814784 230.876698 
L 257.05922 234.19031 
L 257.792526 239.754125 
L 258.281396 235.142093 
L 258.525832 230.579021 
L 258.770267 228.9888 
L 259.503573 230.363597 
L 259.748008 234.266688 
L 259.992444 232.384666 
L 260.236879 226.23529 
L 261.21462 225.810317 
L 261.459055 229.18464 
L 262.192361 223.681536 
L 262.925667 230.968742 
L 263.170103 227.504333 
L 263.414538 228.783168 
L 263.658973 227.143987 
L 263.903409 224.341517 
L 264.88115 226.509466 
L 265.125585 222.890342 
L 265.370021 223.05289 
L 265.614456 222.130483 
L 266.347762 216.310118 
L 266.592197 216.983808 
L 266.836632 213.903245 
L 267.081068 216.280742 
L 267.325503 212.003597 
L 268.058809 215.918438 
L 268.303244 216.092736 
L 268.54768 220.877107 
L 268.792115 219.085171 
L 269.03655 221.080781 
L 269.769856 215.826394 
L 270.014292 216.135821 
L 270.258727 217.048435 
L 270.503162 220.013453 
L 270.747598 220.27392 
L 271.725339 215.704973 
L 271.969774 219.08713 
L 272.458645 213.979622 
L 273.191951 209.332339 
L 273.436386 208.966118 
L 273.680821 211.508122 
L 273.925257 209.412634 
L 274.169692 209.876774 
L 274.902998 210.062822 
L 275.147433 209.418509 
L 275.391869 210.060864 
L 275.636304 208.936742 
L 275.880739 208.678234 
L 276.614045 213.082675 
L 276.85848 215.383795 
L 277.102916 215.630554 
L 277.347351 214.130419 
L 277.591786 213.570317 
L 278.325092 219.091046 
L 278.569528 218.687616 
L 278.813963 217.54391 
L 279.058398 213.760282 
L 279.302834 214.026624 
L 280.03614 212.395277 
L 280.280575 213.944371 
L 280.52501 213.159053 
L 280.769446 218.429107 
L 281.747187 217.978675 
L 281.991622 221.443085 
L 282.236057 221.73097 
L 282.480493 221.119949 
L 282.724928 221.815181 
L 283.702669 216.584294 
L 283.947105 211.327949 
L 284.19154 209.749478 
L 284.435975 209.819981 
L 285.413717 207.039053 
L 285.658152 207.138931 
L 285.902587 202.787366 
L 286.147023 202.205722 
L 286.880329 201.633869 
L 287.124764 202.135219 
L 287.369199 203.010624 
L 287.613634 200.73888 
L 287.85807 200.595917 
L 288.835811 197.037504 
L 289.080246 197.611315 
L 289.324682 198.715853 
L 289.569117 196.091597 
L 290.302423 196.753536 
L 290.546858 199.250496 
L 291.035729 195.650957 
L 292.01347 202.113677 
L 292.746776 196.700659 
L 292.991211 193.026701 
L 293.724517 193.136371 
L 293.968953 192.66048 
L 294.213388 192.636979 
L 294.457823 192.076877 
L 294.702259 192.478349 
L 295.435565 194.105779 
L 295.68 198.527846 
L 295.924435 199.17216 
L 296.168871 197.509478 
L 296.413306 194.932224 
L 297.391047 193.171622 
L 297.879918 189.499622 
L 298.124353 189.775757 
L 299.102094 187.836941 
L 299.34653 184.678042 
L 299.590965 185.318438 
L 299.8354 184.768128 
L 300.568706 185.480986 
L 300.813142 184.110106 
L 301.302012 188.199245 
L 301.546448 189.452621 
L 302.279754 185.809997 
L 302.768624 186.965453 
L 303.01306 192.298176 
L 303.257495 193.206874 
L 303.990801 190.220314 
L 304.235236 187.427635 
L 304.479671 186.867533 
L 304.968542 184.143398 
L 305.701848 183.22295 
L 305.946283 183.81047 
L 306.190719 180.122803 
L 306.435154 179.23369 
L 306.679589 180.972749 
L 307.412895 178.969306 
L 307.901766 182.202624 
L 308.146201 179.948506 
L 308.390637 182.555136 
L 309.368378 185.725786 
L 309.612813 189.795341 
L 309.857248 185.197018 
L 310.101684 191.05655 
L 311.32386 189.03744 
L 311.568296 185.095181 
L 311.812731 184.572288 
L 312.546037 179.915213 
L 312.790472 179.928922 
L 313.034908 178.851802 
L 313.279343 181.058918 
L 313.523778 179.836877 
L 314.257084 176.738688 
L 314.50152 176.538931 
L 314.745955 176.640768 
L 314.99039 179.558784 
L 315.234825 180.248141 
L 315.968131 177.337958 
L 316.212567 177.453504 
L 316.457002 176.478221 
L 316.945873 180.226598 
L 317.679179 179.415821 
L 317.923614 176.824858 
L 318.168049 176.750438 
L 318.412485 178.575667 
L 318.65692 177.388877 
L 319.390226 177.92352 
L 319.634661 180.13847 
L 319.879097 179.353152 
L 320.367967 177.304666 
L 321.101273 175.796698 
L 321.345708 177.006989 
L 321.590144 176.762189 
L 321.834579 179.327693 
L 322.079014 178.076275 
L 323.545626 173.374157 
L 324.523368 173.119565 
L 324.767803 173.428992 
L 325.012238 173.385907 
L 325.256674 175.602816 
L 326.47885 171.407923 
L 326.723285 171.286502 
L 327.212156 169.751117 
L 327.945462 169.359437 
L 328.189897 171.466675 
L 328.434333 169.614029 
L 328.678768 169.069594 
L 328.923203 171.503885 
L 329.900945 168.722957 
L 330.14538 171.110246 
L 330.634251 180.173722 
L 331.367556 179.190605 
L 331.611992 180.093427 
L 331.856427 179.0496 
L 332.345298 183.677299 
L 333.078604 180.67703 
L 333.323039 177.909811 
L 333.567474 179.092685 
L 333.81191 185.784538 
L 334.056345 185.18135 
L 334.789651 187.032038 
L 335.034086 184.333363 
L 335.278522 184.801421 
L 335.522957 182.776435 
L 335.767392 183.356122 
L 337.478439 176.764147 
L 338.211745 176.991322 
L 338.456181 179.617536 
L 338.700616 177.533798 
L 338.945051 177.98423 
L 339.189487 177.680678 
L 340.167228 174.97417 
L 340.411663 174.880166 
L 340.656099 174.061555 
L 340.900534 170.980992 
L 341.63384 171.02016 
L 341.878275 170.638272 
L 342.367146 168.720998 
L 342.611581 168.769958 
L 343.344887 168.668122 
L 343.833758 165.593434 
L 344.078193 165.667853 
L 344.322628 166.829184 
L 345.055934 165.67177 
L 345.30037 164.034547 
L 345.544805 165.297715 
L 345.78924 165.687437 
L 346.033676 165.519014 
L 346.766982 164.220595 
L 347.011417 164.210803 
L 347.255852 164.962829 
L 347.500287 163.264896 
L 348.722464 161.04407 
L 348.966899 162.412992 
L 349.211335 161.63159 
L 349.45577 160.078579 
L 350.433511 159.504768 
L 350.677947 156.890304 
L 350.922382 156.690547 
L 351.166817 160.517261 
L 351.900123 159.461683 
L 352.144559 157.571827 
L 352.388994 157.81271 
L 352.633429 157.278067 
L 352.877864 155.591885 
L 353.61117 156.616128 
L 353.855606 162.166234 
L 354.100041 160.668058 
L 354.344476 157.648205 
L 354.588912 161.58263 
L 355.322218 158.533402 
L 355.566653 164.146176 
L 355.811088 165.660019 
L 356.055524 173.047104 
L 356.299959 176.429261 
L 357.033265 166.862477 
L 357.2777 167.634086 
L 357.522136 164.524147 
L 357.766571 167.31095 
L 358.011006 171.572429 
L 358.744312 171.32567 
L 358.988747 174.486528 
L 359.233183 175.612608 
L 359.477618 184.123814 
L 359.722053 180.97079 
L 360.455359 183.720384 
L 360.699795 183.645965 
L 360.94423 184.836672 
L 361.188665 177.96073 
L 361.433101 180.633946 
L 362.410842 184.296154 
L 362.655277 178.877261 
L 362.899713 178.005773 
L 363.144148 185.437901 
L 363.877454 188.259955 
L 364.121889 186.00192 
L 364.366324 187.23767 
L 364.61076 181.137254 
L 364.855195 180.205056 
L 365.588501 180.590861 
L 365.832936 175.577357 
L 366.077372 175.698778 
L 366.566242 175.130842 
L 367.299548 175.974912 
L 367.543984 179.47849 
L 367.788419 180.118886 
L 368.032854 183.71255 
L 368.27729 183.111322 
L 369.010595 183.540211 
L 369.255031 190.067558 
L 369.499466 192.129754 
L 369.988337 193.721933 
L 370.966078 192.64873 
L 371.210513 186.340723 
L 371.699384 182.876314 
L 372.43269 182.7216 
L 372.677125 179.472614 
L 372.921561 179.505907 
L 373.165996 179.249357 
L 373.410431 185.437901 
L 374.143737 184.1904 
L 374.388172 181.795277 
L 374.632608 184.515494 
L 374.877043 179.799667 
L 375.121478 178.039066 
L 375.854784 175.620442 
L 376.09922 175.849574 
L 376.58809 178.260365 
L 376.832526 178.246656 
L 377.565832 173.495578 
L 377.810267 174.553114 
L 378.054702 173.225318 
L 378.299138 173.50537 
L 378.543573 174.322022 
L 379.276879 173.117606 
L 379.521314 174.43561 
L 379.765749 180.622195 
L 380.25462 182.62368 
L 380.987926 182.598221 
L 381.232361 180.020966 
L 381.476797 179.703706 
L 381.721232 183.332621 
L 381.965667 184.10423 
L 382.698973 184.952218 
L 382.943409 187.985779 
L 383.187844 187.308173 
L 383.432279 188.896435 
L 383.676715 185.494694 
L 384.410021 188.563507 
L 384.654456 188.483213 
L 384.898891 182.420006 
L 385.143326 180.498816 
L 385.387762 177.676762 
L 386.365503 180.158054 
L 386.854374 177.741389 
L 387.098809 176.689728 
L 387.832115 174.271104 
L 388.07655 174.427776 
L 388.320986 173.650291 
L 388.565421 173.730586 
L 388.809856 173.548454 
L 389.543162 170.195674 
L 389.787598 170.769485 
L 390.032033 171.846605 
L 390.276468 173.697293 
L 390.520903 169.028467 
L 391.254209 170.303386 
L 391.498645 169.218432 
L 391.987515 170.491392 
L 392.231951 169.504358 
L 392.965257 171.308045 
L 393.209692 166.66272 
L 393.454127 166.815475 
L 393.698563 167.18953 
L 393.942998 165.801024 
L 394.676304 165.767731 
L 394.920739 164.896243 
L 395.165175 163.264896 
L 395.40961 164.10505 
L 395.654045 163.63895 
L 396.387351 161.970394 
L 396.631786 165.654144 
L 396.876222 163.251187 
L 397.365092 162.289613 
L 398.098398 161.792179 
L 398.342834 161.788262 
L 398.587269 162.412992 
L 398.831704 162.152525 
L 399.07614 162.254362 
L 399.809446 162.035021 
L 400.053881 160.235251 
L 400.298316 159.375514 
L 400.542752 154.85161 
L 400.787187 153.913536 
L 401.520493 154.42272 
L 401.764928 156.351744 
L 402.009363 155.311834 
L 402.253799 156.324326 
L 402.498234 159.130714 
L 403.23154 159.41664 
L 403.475975 163.217894 
L 403.720411 163.168934 
L 403.964846 159.62423 
L 404.209281 159.028877 
L 404.942587 159.399014 
L 405.187023 162.749837 
L 405.431458 159.299136 
L 405.920329 161.051904 
L 406.653634 161.373082 
L 406.89807 162.785088 
L 407.38694 154.759565 
L 407.631376 154.136794 
L 408.364682 154.448179 
L 408.609117 154.3248 
L 409.097988 152.51328 
L 409.342423 151.064064 
L 410.075729 151.052314 
L 410.320164 150.831014 
L 410.5646 152.076557 
L 410.809035 150.580339 
L 411.786776 149.755853 
L 412.275647 147.452774 
L 412.520082 147.858163 
L 413.497823 147.707366 
L 413.986694 147.268685 
L 414.231129 147.640781 
L 414.475565 147.687782 
L 415.208871 144.900979 
L 415.208871 144.900979 
" style="fill:none;stroke:#000000;stroke-linecap:square;stroke-width:1.5;"/>
   </g>
   <g id="patch_3">
    <path d="M 57.6 276.48 
L 57.6 41.472 
" style="fill:none;stroke:#000000;stroke-linecap:square;stroke-linejoin:miter;stroke-width:0.8;"/>
   </g>
   <g id="patch_4">
    <path d="M 414.72 276.48 
L 414.72 41.472 
" style="fill:none;stroke:#000000;stroke-linecap:square;stroke-linejoin:miter;stroke-width:0.8;"/>
   </g>
   <g id="patch_5">
    <path d="M 57.6 276.48 
L 414.72 276.48 
" style="fill:none;stroke:#000000;stroke-linecap:square;stroke-linejoin:miter;stroke-width:0.8;"/>
   </g>
   <g id="patch_6">
    <path d="M 57.6 41.472 
L 414.72 41.472 
" style="fill:none;stroke:#000000;stroke-linecap:square;stroke-linejoin:miter;stroke-width:0.8;"/>
   </g>
   <g id="patch_7">
    <path d="M 128.775195 62.074227 
Q 128.775195 64.924458 128.775195 67.774689 
L 132.775195 67.774689 
Q 129.775195 73.775518 126.775195 79.776346 
Q 123.775195 73.775518 120.775195 67.774689 
L 124.775195 67.774689 
Q 124.775195 64.924458 124.775195 62.074227 
L 128.775195 62.074227 
z
" style="stroke:#000000;stroke-linecap:round;"/>
   </g>
   <g id="text_17">
    <!-- Peak of bull market -->
    <defs>
     <path d="M 19.671875 64.796875 
L 19.671875 37.40625 
L 32.078125 37.40625 
Q 38.96875 37.40625 42.71875 40.96875 
Q 46.484375 44.53125 46.484375 51.125 
Q 46.484375 57.671875 42.71875 61.234375 
Q 38.96875 64.796875 32.078125 64.796875 
z
M 9.8125 72.90625 
L 32.078125 72.90625 
Q 44.34375 72.90625 50.609375 67.359375 
Q 56.890625 61.8125 56.890625 51.125 
Q 56.890625 40.328125 50.609375 34.8125 
Q 44.34375 29.296875 32.078125 29.296875 
L 19.671875 29.296875 
L 19.671875 0 
L 9.8125 0 
z
" id="DejaVuSans-50"/>
     <path d="M 56.203125 29.59375 
L 56.203125 25.203125 
L 14.890625 25.203125 
Q 15.484375 15.921875 20.484375 11.0625 
Q 25.484375 6.203125 34.421875 6.203125 
Q 39.59375 6.203125 44.453125 7.46875 
Q 49.3125 8.734375 54.109375 11.28125 
L 54.109375 2.78125 
Q 49.265625 0.734375 44.1875 -0.34375 
Q 39.109375 -1.421875 33.890625 -1.421875 
Q 20.796875 -1.421875 13.15625 6.1875 
Q 5.515625 13.8125 5.515625 26.8125 
Q 5.515625 40.234375 12.765625 48.109375 
Q 20.015625 56 32.328125 56 
Q 43.359375 56 49.78125 48.890625 
Q 56.203125 41.796875 56.203125 29.59375 
z
M 47.21875 32.234375 
Q 47.125 39.59375 43.09375 43.984375 
Q 39.0625 48.390625 32.421875 48.390625 
Q 24.90625 48.390625 20.390625 44.140625 
Q 15.875 39.890625 15.1875 32.171875 
z
" id="DejaVuSans-65"/>
     <path d="M 34.28125 27.484375 
Q 23.390625 27.484375 19.1875 25 
Q 14.984375 22.515625 14.984375 16.5 
Q 14.984375 11.71875 18.140625 8.90625 
Q 21.296875 6.109375 26.703125 6.109375 
Q 34.1875 6.109375 38.703125 11.40625 
Q 43.21875 16.703125 43.21875 25.484375 
L 43.21875 27.484375 
z
M 52.203125 31.203125 
L 52.203125 0 
L 43.21875 0 
L 43.21875 8.296875 
Q 40.140625 3.328125 35.546875 0.953125 
Q 30.953125 -1.421875 24.3125 -1.421875 
Q 15.921875 -1.421875 10.953125 3.296875 
Q 6 8.015625 6 15.921875 
Q 6 25.140625 12.171875 29.828125 
Q 18.359375 34.515625 30.609375 34.515625 
L 43.21875 34.515625 
L 43.21875 35.40625 
Q 43.21875 41.609375 39.140625 45 
Q 35.0625 48.390625 27.6875 48.390625 
Q 23 48.390625 18.546875 47.265625 
Q 14.109375 46.140625 10.015625 43.890625 
L 10.015625 52.203125 
Q 14.9375 54.109375 19.578125 55.046875 
Q 24.21875 56 28.609375 56 
Q 40.484375 56 46.34375 49.84375 
Q 52.203125 43.703125 52.203125 31.203125 
z
" id="DejaVuSans-61"/>
     <path d="M 9.078125 75.984375 
L 18.109375 75.984375 
L 18.109375 31.109375 
L 44.921875 54.6875 
L 56.390625 54.6875 
L 27.390625 29.109375 
L 57.625 0 
L 45.90625 0 
L 18.109375 26.703125 
L 18.109375 0 
L 9.078125 0 
z
" id="DejaVuSans-6b"/>
     <path id="DejaVuSans-20"/>
     <path d="M 30.609375 48.390625 
Q 23.390625 48.390625 19.1875 42.75 
Q 14.984375 37.109375 14.984375 27.296875 
Q 14.984375 17.484375 19.15625 11.84375 
Q 23.34375 6.203125 30.609375 6.203125 
Q 37.796875 6.203125 41.984375 11.859375 
Q 46.1875 17.53125 46.1875 27.296875 
Q 46.1875 37.015625 41.984375 42.703125 
Q 37.796875 48.390625 30.609375 48.390625 
z
M 30.609375 56 
Q 42.328125 56 49.015625 48.375 
Q 55.71875 40.765625 55.71875 27.296875 
Q 55.71875 13.875 49.015625 6.21875 
Q 42.328125 -1.421875 30.609375 -1.421875 
Q 18.84375 -1.421875 12.171875 6.21875 
Q 5.515625 13.875 5.515625 27.296875 
Q 5.515625 40.765625 12.171875 48.375 
Q 18.84375 56 30.609375 56 
z
" id="DejaVuSans-6f"/>
     <path d="M 37.109375 75.984375 
L 37.109375 68.5 
L 28.515625 68.5 
Q 23.6875 68.5 21.796875 66.546875 
Q 19.921875 64.59375 19.921875 59.515625 
L 19.921875 54.6875 
L 34.71875 54.6875 
L 34.71875 47.703125 
L 19.921875 47.703125 
L 19.921875 0 
L 10.890625 0 
L 10.890625 47.703125 
L 2.296875 47.703125 
L 2.296875 54.6875 
L 10.890625 54.6875 
L 10.890625 58.5 
Q 10.890625 67.625 15.140625 71.796875 
Q 19.390625 75.984375 28.609375 75.984375 
z
" id="DejaVuSans-66"/>
     <path d="M 48.6875 27.296875 
Q 48.6875 37.203125 44.609375 42.84375 
Q 40.53125 48.484375 33.40625 48.484375 
Q 26.265625 48.484375 22.1875 42.84375 
Q 18.109375 37.203125 18.109375 27.296875 
Q 18.109375 17.390625 22.1875 11.75 
Q 26.265625 6.109375 33.40625 6.109375 
Q 40.53125 6.109375 44.609375 11.75 
Q 48.6875 17.390625 48.6875 27.296875 
z
M 18.109375 46.390625 
Q 20.953125 51.265625 25.265625 53.625 
Q 29.59375 56 35.59375 56 
Q 45.5625 56 51.78125 48.09375 
Q 58.015625 40.1875 58.015625 27.296875 
Q 58.015625 14.40625 51.78125 6.484375 
Q 45.5625 -1.421875 35.59375 -1.421875 
Q 29.59375 -1.421875 25.265625 0.953125 
Q 20.953125 3.328125 18.109375 8.203125 
L 18.109375 0 
L 9.078125 0 
L 9.078125 75.984375 
L 18.109375 75.984375 
z
" id="DejaVuSans-62"/>
     <path d="M 8.5 21.578125 
L 8.5 54.6875 
L 17.484375 54.6875 
L 17.484375 21.921875 
Q 17.484375 14.15625 20.5 10.265625 
Q 23.53125 6.390625 29.59375 6.390625 
Q 36.859375 6.390625 41.078125 11.03125 
Q 45.3125 15.671875 45.3125 23.6875 
L 45.3125 54.6875 
L 54.296875 54.6875 
L 54.296875 0 
L 45.3125 0 
L 45.3125 8.40625 
Q 42.046875 3.421875 37.71875 1 
Q 33.40625 -1.421875 27.6875 -1.421875 
Q 18.265625 -1.421875 13.375 4.4375 
Q 8.5 10.296875 8.5 21.578125 
z
M 31.109375 56 
z
" id="DejaVuSans-75"/>
     <path d="M 9.421875 75.984375 
L 18.40625 75.984375 
L 18.40625 0 
L 9.421875 0 
z
" id="DejaVuSans-6c"/>
     <path d="M 52 44.1875 
Q 55.375 50.25 60.0625 53.125 
Q 64.75 56 71.09375 56 
Q 79.640625 56 84.28125 50.015625 
Q 88.921875 44.046875 88.921875 33.015625 
L 88.921875 0 
L 79.890625 0 
L 79.890625 32.71875 
Q 79.890625 40.578125 77.09375 44.375 
Q 74.3125 48.1875 68.609375 48.1875 
Q 61.625 48.1875 57.5625 43.546875 
Q 53.515625 38.921875 53.515625 30.90625 
L 53.515625 0 
L 44.484375 0 
L 44.484375 32.71875 
Q 44.484375 40.625 41.703125 44.40625 
Q 38.921875 48.1875 33.109375 48.1875 
Q 26.21875 48.1875 22.15625 43.53125 
Q 18.109375 38.875 18.109375 30.90625 
L 18.109375 0 
L 9.078125 0 
L 9.078125 54.6875 
L 18.109375 54.6875 
L 18.109375 46.1875 
Q 21.1875 51.21875 25.484375 53.609375 
Q 29.78125 56 35.6875 56 
Q 41.65625 56 45.828125 52.96875 
Q 50 49.953125 52 44.1875 
z
" id="DejaVuSans-6d"/>
     <path d="M 41.109375 46.296875 
Q 39.59375 47.171875 37.8125 47.578125 
Q 36.03125 48 33.890625 48 
Q 26.265625 48 22.1875 43.046875 
Q 18.109375 38.09375 18.109375 28.8125 
L 18.109375 0 
L 9.078125 0 
L 9.078125 54.6875 
L 18.109375 54.6875 
L 18.109375 46.1875 
Q 20.953125 51.171875 25.484375 53.578125 
Q 30.03125 56 36.53125 56 
Q 37.453125 56 38.578125 55.875 
Q 39.703125 55.765625 41.0625 55.515625 
z
" id="DejaVuSans-72"/>
     <path d="M 18.3125 70.21875 
L 18.3125 54.6875 
L 36.8125 54.6875 
L 36.8125 47.703125 
L 18.3125 47.703125 
L 18.3125 18.015625 
Q 18.3125 11.328125 20.140625 9.421875 
Q 21.96875 7.515625 27.59375 7.515625 
L 36.8125 7.515625 
L 36.8125 0 
L 27.59375 0 
Q 17.1875 0 13.234375 3.875 
Q 9.28125 7.765625 9.28125 18.015625 
L 9.28125 47.703125 
L 2.6875 47.703125 
L 2.6875 54.6875 
L 9.28125 54.6875 
L 9.28125 70.21875 
z
" id="DejaVuSans-74"/>
    </defs>
    <g transform="translate(126.775195 57.998783)scale(0.1 -0.1)">
     <use xlink:href="#DejaVuSans-50"/>
     <use x="60.255859" xlink:href="#DejaVuSans-65"/>
     <use x="121.779297" xlink:href="#DejaVuSans-61"/>
     <use x="183.058594" xlink:href="#DejaVuSans-6b"/>
     <use x="240.96875" xlink:href="#DejaVuSans-20"/>
     <use x="272.755859" xlink:href="#DejaVuSans-6f"/>
     <use x="333.9375" xlink:href="#DejaVuSans-66"/>
     <use x="369.142578" xlink:href="#DejaVuSans-20"/>
     <use x="400.929688" xlink:href="#DejaVuSans-62"/>
     <use x="464.40625" xlink:href="#DejaVuSans-75"/>
     <use x="527.785156" xlink:href="#DejaVuSans-6c"/>
     <use x="555.568359" xlink:href="#DejaVuSans-6c"/>
     <use x="583.351562" xlink:href="#DejaVuSans-20"/>
     <use x="615.138672" xlink:href="#DejaVuSans-6d"/>
     <use x="712.550781" xlink:href="#DejaVuSans-61"/>
     <use x="773.830078" xlink:href="#DejaVuSans-72"/>
     <use x="814.943359" xlink:href="#DejaVuSans-6b"/>
     <use x="872.806641" xlink:href="#DejaVuSans-65"/>
     <use x="934.330078" xlink:href="#DejaVuSans-74"/>
    </g>
   </g>
   <g id="patch_8">
    <path d="M 166.173799 110.180365 
Q 166.173799 113.030596 166.173799 115.880827 
L 170.173799 115.880827 
Q 167.173799 121.881655 164.173799 127.882483 
Q 161.173799 121.881655 158.173799 115.880827 
L 162.173799 115.880827 
Q 162.173799 113.030596 162.173799 110.180365 
L 166.173799 110.180365 
z
" style="stroke:#000000;stroke-linecap:round;"/>
   </g>
   <g id="text_18">
    <!-- Bear Stearns Fails -->
    <defs>
     <path d="M 19.671875 34.8125 
L 19.671875 8.109375 
L 35.5 8.109375 
Q 43.453125 8.109375 47.28125 11.40625 
Q 51.125 14.703125 51.125 21.484375 
Q 51.125 28.328125 47.28125 31.5625 
Q 43.453125 34.8125 35.5 34.8125 
z
M 19.671875 64.796875 
L 19.671875 42.828125 
L 34.28125 42.828125 
Q 41.5 42.828125 45.03125 45.53125 
Q 48.578125 48.25 48.578125 53.8125 
Q 48.578125 59.328125 45.03125 62.0625 
Q 41.5 64.796875 34.28125 64.796875 
z
M 9.8125 72.90625 
L 35.015625 72.90625 
Q 46.296875 72.90625 52.390625 68.21875 
Q 58.5 63.53125 58.5 54.890625 
Q 58.5 48.1875 55.375 44.234375 
Q 52.25 40.28125 46.1875 39.3125 
Q 53.46875 37.75 57.5 32.78125 
Q 61.53125 27.828125 61.53125 20.40625 
Q 61.53125 10.640625 54.890625 5.3125 
Q 48.25 0 35.984375 0 
L 9.8125 0 
z
" id="DejaVuSans-42"/>
     <path d="M 53.515625 70.515625 
L 53.515625 60.890625 
Q 47.90625 63.578125 42.921875 64.890625 
Q 37.9375 66.21875 33.296875 66.21875 
Q 25.25 66.21875 20.875 63.09375 
Q 16.5 59.96875 16.5 54.203125 
Q 16.5 49.359375 19.40625 46.890625 
Q 22.3125 44.4375 30.421875 42.921875 
L 36.375 41.703125 
Q 47.40625 39.59375 52.65625 34.296875 
Q 57.90625 29 57.90625 20.125 
Q 57.90625 9.515625 50.796875 4.046875 
Q 43.703125 -1.421875 29.984375 -1.421875 
Q 24.8125 -1.421875 18.96875 -0.25 
Q 13.140625 0.921875 6.890625 3.21875 
L 6.890625 13.375 
Q 12.890625 10.015625 18.65625 8.296875 
Q 24.421875 6.59375 29.984375 6.59375 
Q 38.421875 6.59375 43.015625 9.90625 
Q 47.609375 13.234375 47.609375 19.390625 
Q 47.609375 24.75 44.3125 27.78125 
Q 41.015625 30.8125 33.5 32.328125 
L 27.484375 33.5 
Q 16.453125 35.6875 11.515625 40.375 
Q 6.59375 45.0625 6.59375 53.421875 
Q 6.59375 63.09375 13.40625 68.65625 
Q 20.21875 74.21875 32.171875 74.21875 
Q 37.3125 74.21875 42.625 73.28125 
Q 47.953125 72.359375 53.515625 70.515625 
z
" id="DejaVuSans-53"/>
     <path d="M 54.890625 33.015625 
L 54.890625 0 
L 45.90625 0 
L 45.90625 32.71875 
Q 45.90625 40.484375 42.875 44.328125 
Q 39.84375 48.1875 33.796875 48.1875 
Q 26.515625 48.1875 22.3125 43.546875 
Q 18.109375 38.921875 18.109375 30.90625 
L 18.109375 0 
L 9.078125 0 
L 9.078125 54.6875 
L 18.109375 54.6875 
L 18.109375 46.1875 
Q 21.34375 51.125 25.703125 53.5625 
Q 30.078125 56 35.796875 56 
Q 45.21875 56 50.046875 50.171875 
Q 54.890625 44.34375 54.890625 33.015625 
z
" id="DejaVuSans-6e"/>
     <path d="M 44.28125 53.078125 
L 44.28125 44.578125 
Q 40.484375 46.53125 36.375 47.5 
Q 32.28125 48.484375 27.875 48.484375 
Q 21.1875 48.484375 17.84375 46.4375 
Q 14.5 44.390625 14.5 40.28125 
Q 14.5 37.15625 16.890625 35.375 
Q 19.28125 33.59375 26.515625 31.984375 
L 29.59375 31.296875 
Q 39.15625 29.25 43.1875 25.515625 
Q 47.21875 21.78125 47.21875 15.09375 
Q 47.21875 7.46875 41.1875 3.015625 
Q 35.15625 -1.421875 24.609375 -1.421875 
Q 20.21875 -1.421875 15.453125 -0.5625 
Q 10.6875 0.296875 5.421875 2 
L 5.421875 11.28125 
Q 10.40625 8.6875 15.234375 7.390625 
Q 20.0625 6.109375 24.8125 6.109375 
Q 31.15625 6.109375 34.5625 8.28125 
Q 37.984375 10.453125 37.984375 14.40625 
Q 37.984375 18.0625 35.515625 20.015625 
Q 33.0625 21.96875 24.703125 23.78125 
L 21.578125 24.515625 
Q 13.234375 26.265625 9.515625 29.90625 
Q 5.8125 33.546875 5.8125 39.890625 
Q 5.8125 47.609375 11.28125 51.796875 
Q 16.75 56 26.8125 56 
Q 31.78125 56 36.171875 55.265625 
Q 40.578125 54.546875 44.28125 53.078125 
z
" id="DejaVuSans-73"/>
     <path d="M 9.8125 72.90625 
L 51.703125 72.90625 
L 51.703125 64.59375 
L 19.671875 64.59375 
L 19.671875 43.109375 
L 48.578125 43.109375 
L 48.578125 34.8125 
L 19.671875 34.8125 
L 19.671875 0 
L 9.8125 0 
z
" id="DejaVuSans-46"/>
     <path d="M 9.421875 54.6875 
L 18.40625 54.6875 
L 18.40625 0 
L 9.421875 0 
z
M 9.421875 75.984375 
L 18.40625 75.984375 
L 18.40625 64.59375 
L 9.421875 64.59375 
z
" id="DejaVuSans-69"/>
    </defs>
    <g transform="translate(164.173799 106.104921)scale(0.1 -0.1)">
     <use xlink:href="#DejaVuSans-42"/>
     <use x="68.603516" xlink:href="#DejaVuSans-65"/>
     <use x="130.126953" xlink:href="#DejaVuSans-61"/>
     <use x="191.40625" xlink:href="#DejaVuSans-72"/>
     <use x="232.519531" xlink:href="#DejaVuSans-20"/>
     <use x="264.306641" xlink:href="#DejaVuSans-53"/>
     <use x="327.783203" xlink:href="#DejaVuSans-74"/>
     <use x="366.992188" xlink:href="#DejaVuSans-65"/>
     <use x="428.515625" xlink:href="#DejaVuSans-61"/>
     <use x="489.794922" xlink:href="#DejaVuSans-72"/>
     <use x="530.892578" xlink:href="#DejaVuSans-6e"/>
     <use x="594.271484" xlink:href="#DejaVuSans-73"/>
     <use x="646.371094" xlink:href="#DejaVuSans-20"/>
     <use x="678.158203" xlink:href="#DejaVuSans-46"/>
     <use x="735.537109" xlink:href="#DejaVuSans-61"/>
     <use x="796.816406" xlink:href="#DejaVuSans-69"/>
     <use x="824.599609" xlink:href="#DejaVuSans-6c"/>
     <use x="852.382812" xlink:href="#DejaVuSans-73"/>
    </g>
   </g>
   <g id="patch_9">
    <path d="M 211.883203 132.911513 
Q 211.883203 135.761745 211.883203 138.611976 
L 215.883203 138.611976 
Q 212.883203 144.612804 209.883203 150.613632 
Q 206.883203 144.612804 203.883203 138.611976 
L 207.883203 138.611976 
Q 207.883203 135.761745 207.883203 132.911513 
L 211.883203 132.911513 
z
" style="stroke:#000000;stroke-linecap:round;"/>
   </g>
   <g id="text_19">
    <!-- Lehman Bankruptcy -->
    <defs>
     <path d="M 9.8125 72.90625 
L 19.671875 72.90625 
L 19.671875 8.296875 
L 55.171875 8.296875 
L 55.171875 0 
L 9.8125 0 
z
" id="DejaVuSans-4c"/>
     <path d="M 54.890625 33.015625 
L 54.890625 0 
L 45.90625 0 
L 45.90625 32.71875 
Q 45.90625 40.484375 42.875 44.328125 
Q 39.84375 48.1875 33.796875 48.1875 
Q 26.515625 48.1875 22.3125 43.546875 
Q 18.109375 38.921875 18.109375 30.90625 
L 18.109375 0 
L 9.078125 0 
L 9.078125 75.984375 
L 18.109375 75.984375 
L 18.109375 46.1875 
Q 21.34375 51.125 25.703125 53.5625 
Q 30.078125 56 35.796875 56 
Q 45.21875 56 50.046875 50.171875 
Q 54.890625 44.34375 54.890625 33.015625 
z
" id="DejaVuSans-68"/>
     <path d="M 18.109375 8.203125 
L 18.109375 -20.796875 
L 9.078125 -20.796875 
L 9.078125 54.6875 
L 18.109375 54.6875 
L 18.109375 46.390625 
Q 20.953125 51.265625 25.265625 53.625 
Q 29.59375 56 35.59375 56 
Q 45.5625 56 51.78125 48.09375 
Q 58.015625 40.1875 58.015625 27.296875 
Q 58.015625 14.40625 51.78125 6.484375 
Q 45.5625 -1.421875 35.59375 -1.421875 
Q 29.59375 -1.421875 25.265625 0.953125 
Q 20.953125 3.328125 18.109375 8.203125 
z
M 48.6875 27.296875 
Q 48.6875 37.203125 44.609375 42.84375 
Q 40.53125 48.484375 33.40625 48.484375 
Q 26.265625 48.484375 22.1875 42.84375 
Q 18.109375 37.203125 18.109375 27.296875 
Q 18.109375 17.390625 22.1875 11.75 
Q 26.265625 6.109375 33.40625 6.109375 
Q 40.53125 6.109375 44.609375 11.75 
Q 48.6875 17.390625 48.6875 27.296875 
z
" id="DejaVuSans-70"/>
     <path d="M 48.78125 52.59375 
L 48.78125 44.1875 
Q 44.96875 46.296875 41.140625 47.34375 
Q 37.3125 48.390625 33.40625 48.390625 
Q 24.65625 48.390625 19.8125 42.84375 
Q 14.984375 37.3125 14.984375 27.296875 
Q 14.984375 17.28125 19.8125 11.734375 
Q 24.65625 6.203125 33.40625 6.203125 
Q 37.3125 6.203125 41.140625 7.25 
Q 44.96875 8.296875 48.78125 10.40625 
L 48.78125 2.09375 
Q 45.015625 0.34375 40.984375 -0.53125 
Q 36.96875 -1.421875 32.421875 -1.421875 
Q 20.0625 -1.421875 12.78125 6.34375 
Q 5.515625 14.109375 5.515625 27.296875 
Q 5.515625 40.671875 12.859375 48.328125 
Q 20.21875 56 33.015625 56 
Q 37.15625 56 41.109375 55.140625 
Q 45.0625 54.296875 48.78125 52.59375 
z
" id="DejaVuSans-63"/>
     <path d="M 32.171875 -5.078125 
Q 28.375 -14.84375 24.75 -17.8125 
Q 21.140625 -20.796875 15.09375 -20.796875 
L 7.90625 -20.796875 
L 7.90625 -13.28125 
L 13.1875 -13.28125 
Q 16.890625 -13.28125 18.9375 -11.515625 
Q 21 -9.765625 23.484375 -3.21875 
L 25.09375 0.875 
L 2.984375 54.6875 
L 12.5 54.6875 
L 29.59375 11.921875 
L 46.6875 54.6875 
L 56.203125 54.6875 
z
" id="DejaVuSans-79"/>
    </defs>
    <g transform="translate(209.883203 128.836069)scale(0.1 -0.1)">
     <use xlink:href="#DejaVuSans-4c"/>
     <use x="55.697266" xlink:href="#DejaVuSans-65"/>
     <use x="117.220703" xlink:href="#DejaVuSans-68"/>
     <use x="180.599609" xlink:href="#DejaVuSans-6d"/>
     <use x="278.011719" xlink:href="#DejaVuSans-61"/>
     <use x="339.291016" xlink:href="#DejaVuSans-6e"/>
     <use x="402.669922" xlink:href="#DejaVuSans-20"/>
     <use x="434.457031" xlink:href="#DejaVuSans-42"/>
     <use x="503.060547" xlink:href="#DejaVuSans-61"/>
     <use x="564.339844" xlink:href="#DejaVuSans-6e"/>
     <use x="627.71875" xlink:href="#DejaVuSans-6b"/>
     <use x="685.628906" xlink:href="#DejaVuSans-72"/>
     <use x="726.742188" xlink:href="#DejaVuSans-75"/>
     <use x="790.121094" xlink:href="#DejaVuSans-70"/>
     <use x="853.597656" xlink:href="#DejaVuSans-74"/>
     <use x="892.806641" xlink:href="#DejaVuSans-63"/>
     <use x="947.787109" xlink:href="#DejaVuSans-79"/>
    </g>
   </g>
   <g id="text_20">
    <!-- Important dates in 2008-2009 financial crisis -->
    <defs>
     <path d="M 9.8125 72.90625 
L 19.671875 72.90625 
L 19.671875 0 
L 9.8125 0 
z
" id="DejaVuSans-49"/>
     <path d="M 45.40625 46.390625 
L 45.40625 75.984375 
L 54.390625 75.984375 
L 54.390625 0 
L 45.40625 0 
L 45.40625 8.203125 
Q 42.578125 3.328125 38.25 0.953125 
Q 33.9375 -1.421875 27.875 -1.421875 
Q 17.96875 -1.421875 11.734375 6.484375 
Q 5.515625 14.40625 5.515625 27.296875 
Q 5.515625 40.1875 11.734375 48.09375 
Q 17.96875 56 27.875 56 
Q 33.9375 56 38.25 53.625 
Q 42.578125 51.265625 45.40625 46.390625 
z
M 14.796875 27.296875 
Q 14.796875 17.390625 18.875 11.75 
Q 22.953125 6.109375 30.078125 6.109375 
Q 37.203125 6.109375 41.296875 11.75 
Q 45.40625 17.390625 45.40625 27.296875 
Q 45.40625 37.203125 41.296875 42.84375 
Q 37.203125 48.484375 30.078125 48.484375 
Q 22.953125 48.484375 18.875 42.84375 
Q 14.796875 37.203125 14.796875 27.296875 
z
" id="DejaVuSans-64"/>
    </defs>
    <g transform="translate(101.329688 35.472)scale(0.12 -0.12)">
     <use xlink:href="#DejaVuSans-49"/>
     <use x="29.492188" xlink:href="#DejaVuSans-6d"/>
     <use x="126.904297" xlink:href="#DejaVuSans-70"/>
     <use x="190.380859" xlink:href="#DejaVuSans-6f"/>
     <use x="251.5625" xlink:href="#DejaVuSans-72"/>
     <use x="292.675781" xlink:href="#DejaVuSans-74"/>
     <use x="331.884766" xlink:href="#DejaVuSans-61"/>
     <use x="393.164062" xlink:href="#DejaVuSans-6e"/>
     <use x="456.542969" xlink:href="#DejaVuSans-74"/>
     <use x="495.751953" xlink:href="#DejaVuSans-20"/>
     <use x="527.539062" xlink:href="#DejaVuSans-64"/>
     <use x="591.015625" xlink:href="#DejaVuSans-61"/>
     <use x="652.294922" xlink:href="#DejaVuSans-74"/>
     <use x="691.503906" xlink:href="#DejaVuSans-65"/>
     <use x="753.027344" xlink:href="#DejaVuSans-73"/>
     <use x="805.126953" xlink:href="#DejaVuSans-20"/>
     <use x="836.914062" xlink:href="#DejaVuSans-69"/>
     <use x="864.697266" xlink:href="#DejaVuSans-6e"/>
     <use x="928.076172" xlink:href="#DejaVuSans-20"/>
     <use x="959.863281" xlink:href="#DejaVuSans-32"/>
     <use x="1023.486328" xlink:href="#DejaVuSans-30"/>
     <use x="1087.109375" xlink:href="#DejaVuSans-30"/>
     <use x="1150.732422" xlink:href="#DejaVuSans-38"/>
     <use x="1214.355469" xlink:href="#DejaVuSans-2d"/>
     <use x="1250.439453" xlink:href="#DejaVuSans-32"/>
     <use x="1314.0625" xlink:href="#DejaVuSans-30"/>
     <use x="1377.685547" xlink:href="#DejaVuSans-30"/>
     <use x="1441.308594" xlink:href="#DejaVuSans-39"/>
     <use x="1504.931641" xlink:href="#DejaVuSans-20"/>
     <use x="1536.71875" xlink:href="#DejaVuSans-66"/>
     <use x="1571.923828" xlink:href="#DejaVuSans-69"/>
     <use x="1599.707031" xlink:href="#DejaVuSans-6e"/>
     <use x="1663.085938" xlink:href="#DejaVuSans-61"/>
     <use x="1724.365234" xlink:href="#DejaVuSans-6e"/>
     <use x="1787.744141" xlink:href="#DejaVuSans-63"/>
     <use x="1842.724609" xlink:href="#DejaVuSans-69"/>
     <use x="1870.507812" xlink:href="#DejaVuSans-61"/>
     <use x="1931.787109" xlink:href="#DejaVuSans-6c"/>
     <use x="1959.570312" xlink:href="#DejaVuSans-20"/>
     <use x="1991.357422" xlink:href="#DejaVuSans-63"/>
     <use x="2046.337891" xlink:href="#DejaVuSans-72"/>
     <use x="2087.451172" xlink:href="#DejaVuSans-69"/>
     <use x="2115.234375" xlink:href="#DejaVuSans-73"/>
     <use x="2167.333984" xlink:href="#DejaVuSans-69"/>
     <use x="2195.117188" xlink:href="#DejaVuSans-73"/>
    </g>
   </g>
  </g>
 </g>
 <defs>
  <clipPath id="p76d81e4dd7">
   <rect height="235.008" width="357.12" x="57.6" y="41.472"/>
  </clipPath>
 </defs>
</svg>
